<?xml version="1.0" encoding="UTF-8"?>
<svg width="206px" height="44px" viewBox="0 0 206 44" version="1.1" xmlns="http://www.w3.org/2000/svg" xmlns:xlink="http://www.w3.org/1999/xlink">
    <!-- Generator: Sketch 40.3 (33839) - http://www.bohemiancoding.com/sketch -->
    <title>Group 2</title>
    <desc>Created with Sketch.</desc>
    <defs></defs>
    <g id="Page-1" stroke="none" stroke-width="1" fill="none" fill-rule="evenodd">
        <g id="Group-2" fill="#FFFFFF">
            <g id="spotify-logo" transform="translate(110.000000, 0.000000)">
                <g id="Group">
                    <path d="M20.9749808,0.0539213104 C9.39155468,0.0539213104 0,9.52551765 0,21.2076662 C0,32.8898147 9.39155468,42.361411 20.9749808,42.361411 C32.558407,42.361411 41.9499616,32.8898147 41.9499616,21.2076662 C41.9499616,9.52285533 32.558407,0.0539213104 20.9749808,0.0539213104 Z M34.2223394,15.4951889 C29.0722618,12.9047884 23.5333246,11.5931525 17.7459778,11.5931525 C14.7330864,11.5931525 11.73315,11.9623061 8.82153477,12.6906586 C7.8575082,12.9312306 7.27257356,14.1045376 7.51111256,15.073462 C7.74965156,16.0423865 8.72344589,16.6356246 9.68747246,16.3950526 C12.3147944,15.7391828 15.0271474,15.4063224 17.7491652,15.4063224 C22.9711129,15.4063224 27.9709725,16.5894804 32.6177533,18.9261397 C32.8726405,19.0547212 33.147166,19.1172492 33.4151111,19.1172492 C34.0784962,19.1172492 34.7091851,18.5603043 35.0294649,17.9242402 C35.4706592,17.031013 35.1112056,15.9401434 34.2223394,15.4951889 Z M17.7459778,26.921322 C15.318021,26.921322 12.9193674,27.2805208 10.6156154,28.0023405 C9.90318574,28.2165741 9.50784848,29.7391252 9.72674914,30.4609449 C9.9456498,31.1761281 10.7005435,31.5814712 11.4129731,31.3540685 C13.4553604,30.7146862 15.5892563,30.3917805 17.7459778,30.3917805 C21.3470942,30.3917805 24.9123268,31.3112425 28.0527133,33.0646183 L28.7030405,33.2327077 C29.1801185,33.2327077 29.6409512,32.9756482 29.8794902,32.5241609 C30.2356536,31.8682911 30.0069851,30.2764718 29.3500775,29.9172729 C25.814251,27.9594109 21.8013464,26.921322 17.7459778,26.921322 Z M31.702874,22.943381 C27.4220244,20.7023284 22.5987042,19.5125339 17.749268,19.5125339 C15.0434955,19.5125339 12.3507809,19.875051 9.75286505,20.5902343 C8.91633346,20.8209552 8.42290732,22.2611727 8.65157573,23.1048338 C8.88034697,23.9484949 9.74299447,24.4429119 10.5828162,24.2155091 C12.9094968,23.5761268 15.3243957,23.2499029 17.7491652,23.2499029 C22.1606972,23.2499029 26.3631991,24.281459 30.2583764,26.3214474 C30.4871477,26.4433925 30.7354544,26.5060242 30.9805738,26.5060242 C31.5524505,26.5060242 32.0982113,25.6162189 32.3792143,25.0756577 C32.771467,24.3012647 32.4708256,23.3421913 31.702874,22.943381 Z" id="Combined-Shape"></path>
                </g>
            </g>
            <g id="logo-mobile" transform="translate(0.206257, 0.078795)">
                <path d="M0.0327540953,0.856405174 L2.58440434,0.856405174 L2.58440434,39.9683074 L22.404486,39.9683074 L22.404486,42.3383701 L0.0327540953,42.3383701 L0.0327540953,0.856405174 Z M63.8801977,0.145014241 C75.4516349,0.145014241 84.8870934,9.38994757 84.8870934,21.3006646 C84.8870934,33.5088204 75.4516349,43.0494747 63.8801977,43.0494747 C52.3081872,43.0494747 42.873302,33.5088204 42.873302,21.3006646 C42.873302,9.38994757 52.3081872,0.145014241 63.8801977,0.145014241 L63.8801977,0.145014241 Z M63.8801977,40.6201534 C74.0277447,40.6201534 82.2164751,32.2048422 82.2164751,21.3009509 C82.2164751,10.6936395 74.0280313,2.57490814 63.8801977,2.57490814 C53.732364,2.57490814 45.5436336,10.6936395 45.5436336,21.3009509 C45.5436336,32.2045559 53.732364,40.6201534 63.8801977,40.6201534 L63.8801977,40.6201534 Z M130.693816,0.145014241 C142.265254,0.145014241 151.700713,9.38994757 151.700713,21.3006646 C151.700713,33.5088204 142.265254,43.0494747 130.693816,43.0494747 C119.121233,43.0494747 109.686921,33.5088204 109.686921,21.3006646 C109.686921,9.38994757 119.121233,0.145014241 130.693816,0.145014241 L130.693816,0.145014241 Z M130.693816,40.6201534 C140.84079,40.6201534 149.029521,32.2048422 149.029521,21.3009509 C149.029521,10.6936395 140.841077,2.57490814 130.693816,2.57490814 C120.545123,2.57490814 112.356966,10.6936395 112.356966,21.3009509 C112.356966,32.2045559 120.545123,40.6201534 130.693816,40.6201534 L130.693816,40.6201534 Z M187.714499,3.22646783 L172.226003,3.22646783 L172.226003,0.856405174 L205.754646,0.856405174 L205.754646,3.22646783 L190.26615,3.22646783 L190.26615,42.3383701 L187.714786,42.3383701 L187.714786,3.22646783 L187.714499,3.22646783 Z" id="Shape"></path>
            </g>
        </g>
    </g>
</svg>