<?xml version="1.0" encoding="UTF-8"?>
<svg width="25px" height="26px" viewBox="0 0 25 26" version="1.1" xmlns="http://www.w3.org/2000/svg" xmlns:xlink="http://www.w3.org/1999/xlink">
    <!-- Generator: Sketch 40.3 (33839) - http://www.bohemiancoding.com/sketch -->
    <title>search</title>
    <desc>Created with Sketch.</desc>
    <defs></defs>
    <g id="Page-1" stroke="none" stroke-width="1" fill="none" fill-rule="evenodd">
        <g id="search" fill="#000000">
            <g id="Page-1">
                <path d="M24.7330514,23.9215896 L17.275721,16.4642592 C18.7045254,14.7596739 19.572872,12.5781729 19.572872,10.2204871 C19.572872,4.88238466 15.1244874,0.434 9.78638489,0.434 C4.4482824,0.434 1.42108547e-14,4.88248691 1.42108547e-14,10.2205894 C1.42108547e-14,15.5586919 4.44838466,20.0070766 9.78648715,20.0070766 C12.0995899,20.0070766 14.2420296,19.1707357 15.9324015,17.7899909 L23.3095642,25.1671537 C23.4874874,25.3450768 23.6654105,25.3450768 24.0212567,25.3450768 C24.3771029,25.3450768 24.555026,25.3450768 24.7329492,25.1671537 C25.0889999,24.8113074 25.0889999,24.2775381 24.7330514,23.9215896 L24.7330514,23.9215896 L24.7330514,23.9215896 Z M9.78648715,18.2277431 C5.33810249,18.2277431 1.77943567,14.6690763 1.77943567,10.2206917 C1.77943567,5.772307 5.33810249,2.21364018 9.78648715,2.21364018 C14.2348718,2.21364018 17.7935386,5.772307 17.7935386,10.2206917 C17.7935386,14.6690763 14.2348718,18.2277431 9.78648715,18.2277431 L9.78648715,18.2277431 L9.78648715,18.2277431 Z" id="Shape"></path>
            </g>
        </g>
    </g>
</svg>